<?xml version="1.0" encoding="UTF-8"?>
<svg id="Layer_1" xmlns="http://www.w3.org/2000/svg" version="1.1" xmlns:xlink="http://www.w3.org/1999/xlink" viewBox="0 0 1000 633.43">
  <!-- Generator: Adobe Illustrator 29.8.2, SVG Export Plug-In . SVG Version: 2.1.1 Build 3)  -->
  <defs>
    <style>
      .st0 {
        fill: #fdfefe;
      }

      .st1 {
        fill: url(#linear-gradient1);
      }

      .st2 {
        fill: #f9f9f9;
        font-family: Montserrat-Regular, Montserrat;
        font-size: 41.65px;
      }

      .st3 {
        fill: #424242;
      }

      .st4 {
        fill: #c7c7c7;
      }

      .st5 {
        fill: #2b3b23;
      }

      .st6 {
        fill: #8a8a8a;
      }

      .st7 {
        fill: #679a5f;
      }

      .st8 {
        fill: #a4a4a4;
      }

      .st9 {
        fill: #cc8340;
      }

      .st10 {
        fill: #2a2a2a;
      }

      .st11 {
        fill: #e2cb46;
      }

      .st12 {
        fill: url(#linear-gradient);
      }
    </style>
    <linearGradient id="linear-gradient" x1="-1961.01" y1="503.86" x2="-2087.46" y2="255.69" gradientUnits="userSpaceOnUse">
      <stop offset=".08" stop-color="#547d50"/>
      <stop offset=".49" stop-color="#68995f"/>
    </linearGradient>
    <linearGradient id="linear-gradient1" x1="-865.01" y1="503.86" x2="-991.46" y2="255.69" gradientUnits="userSpaceOnUse">
      <stop offset=".08" stop-color="#5b5b5b"/>
      <stop offset=".49" stop-color="#8f8f8f"/>
    </linearGradient>
  </defs>
  <g>
    <path class="st5" d="M-1813.48,340.22h-45.46l-8.67,20.98h-23.22l43.64-97.9h22.38l43.78,97.9h-23.78l-8.67-20.98ZM-1820.61,323.02l-15.52-37.48-15.52,37.48h31.05Z"/>
    <path class="st5" d="M-1779.21,263.29h22.66v79.44h49.09v18.46h-71.75v-97.9Z"/>
    <path class="st5" d="M-1637.82,340.22h-45.46l-8.67,20.98h-23.22l43.64-97.9h22.38l43.78,97.9h-23.78l-8.67-20.98ZM-1644.95,323.02l-15.52-37.48-15.52,37.48h31.05Z"/>
    <path class="st5" d="M-1611.1,312.25c0-29.51,22.66-50.63,53.15-50.63,16.92,0,31.05,6.15,40.28,17.34l-14.55,13.43c-6.57-7.55-14.83-11.47-24.62-11.47-18.32,0-31.33,12.87-31.33,31.33s13.01,31.33,31.33,31.33c9.79,0,18.04-3.92,24.62-11.61l14.55,13.43c-9.23,11.33-23.36,17.48-40.42,17.48-30.35,0-53.01-21.12-53.01-50.63Z"/>
    <path class="st5" d="M-1435.02,343.02v18.18h-75.81v-97.9h73.99v18.18h-51.47v21.26h45.46v17.62h-45.46v22.66h53.29Z"/>
    <path class="st5" d="M-1335.58,263.29v97.9h-18.6l-48.81-59.44v59.44h-22.38v-97.9h18.74l48.67,59.44v-59.44h22.38Z"/>
    <path class="st5" d="M-1256.28,340.22h-45.46l-8.67,20.98h-23.22l43.64-97.9h22.38l43.78,97.9h-23.78l-8.67-20.98ZM-1263.41,323.02l-15.52-37.48-15.52,37.48h31.05Z"/>
  </g>
  <g>
    <path class="st3" d="M-1887.36,540.01c0-8.7,6.62-15.11,15.57-15.11,4.33,0,8.23,1.44,10.86,4.33l-1.99,1.99c-2.42-2.46-5.39-3.52-8.78-3.52-7.17,0-12.56,5.26-12.56,12.31s5.39,12.31,12.56,12.31c3.39,0,6.36-1.06,8.78-3.56l1.99,1.99c-2.63,2.89-6.54,4.37-10.91,4.37-8.91,0-15.53-6.41-15.53-15.11Z"/>
    <path class="st3" d="M-1836.05,554.86l-6.79-9.55c-.76.08-1.53.13-2.38.13h-7.98v9.42h-3.14v-29.7h11.12c7.55,0,12.14,3.82,12.14,10.18,0,4.67-2.46,7.94-6.79,9.34l7.26,10.18h-3.44ZM-1836.22,535.34c0-4.75-3.14-7.47-9.08-7.47h-7.89v14.89h7.89c5.94,0,9.08-2.76,9.08-7.43Z"/>
    <path class="st3" d="M-1806.77,552.15v2.72h-21.01v-29.7h20.37v2.72h-17.23v10.57h15.36v2.67h-15.36v11.03h17.87Z"/>
    <path class="st3" d="M-1782.89,546.93h-16.55l-3.56,7.94h-3.27l13.58-29.7h3.1l13.58,29.7h-3.31l-3.56-7.94ZM-1784.03,544.38l-7.13-15.96-7.13,15.96h14.26Z"/>
    <path class="st3" d="M-1733.37,525.16v29.7h-3.01v-23.76l-11.67,19.99h-1.49l-11.67-19.86v23.64h-3.01v-29.7h2.59l12.9,22.02,12.77-22.02h2.59Z"/>
    <path class="st3" d="M-1707.19,546.93h-16.55l-3.56,7.94h-3.27l13.58-29.7h3.1l13.58,29.7h-3.31l-3.56-7.94ZM-1708.33,544.38l-7.13-15.96-7.13,15.96h14.26Z"/>
    <path class="st3" d="M-1677.02,540.01h3.01v11.33c-2.8,2.5-6.79,3.78-10.91,3.78-9.04,0-15.66-6.41-15.66-15.11s6.62-15.11,15.7-15.11c4.5,0,8.4,1.44,11.03,4.29l-1.95,1.99c-2.5-2.46-5.47-3.48-8.95-3.48-7.34,0-12.73,5.22-12.73,12.31s5.39,12.31,12.69,12.31c2.84,0,5.47-.64,7.77-2.29v-10.01Z"/>
    <path class="st3" d="M-1667.26,525.16h3.14v29.7h-3.14v-29.7Z"/>
    <path class="st3" d="M-1637.94,546.93h-16.55l-3.56,7.94h-3.27l13.58-29.7h3.1l13.58,29.7h-3.31l-3.56-7.94ZM-1639.08,544.38l-7.13-15.96-7.13,15.96h14.26Z"/>
    <path class="st3" d="M-1621.9,540.01c0-8.7,6.62-15.11,15.57-15.11,4.33,0,8.23,1.44,10.86,4.33l-1.99,1.99c-2.42-2.46-5.39-3.52-8.78-3.52-7.17,0-12.56,5.26-12.56,12.31s5.39,12.31,12.56,12.31c3.39,0,6.36-1.06,8.78-3.56l1.99,1.99c-2.63,2.89-6.54,4.37-10.91,4.37-8.91,0-15.53-6.41-15.53-15.11Z"/>
    <path class="st3" d="M-1594.15,540.01c0-8.66,6.62-15.11,15.62-15.11s15.57,6.41,15.57,15.11-6.66,15.11-15.57,15.11-15.62-6.45-15.62-15.11ZM-1566.1,540.01c0-7.09-5.3-12.31-12.43-12.31s-12.52,5.22-12.52,12.31,5.35,12.31,12.52,12.31,12.43-5.22,12.43-12.31Z"/>
    <path class="st3" d="M-1533.21,525.16v29.7h-2.59l-19.1-24.1v24.1h-3.14v-29.7h2.59l19.14,24.1v-24.1h3.1Z"/>
    <path class="st3" d="M-1516.67,525.16h3.14v26.99h16.63v2.72h-19.77v-29.7Z"/>
    <path class="st3" d="M-1497.02,540.01c0-8.66,6.62-15.11,15.62-15.11s15.57,6.41,15.57,15.11-6.66,15.11-15.57,15.11-15.62-6.45-15.62-15.11ZM-1468.97,540.01c0-7.09-5.3-12.31-12.43-12.31s-12.52,5.22-12.52,12.31,5.35,12.31,12.52,12.31,12.43-5.22,12.43-12.31Z"/>
    <path class="st3" d="M-1422,557.36c-1.82,2.21-4.33,3.4-7.21,3.4-3.48,0-6.37-1.57-10.27-5.64-8.7-.25-15.06-6.62-15.06-15.11s6.62-15.11,15.62-15.11,15.57,6.41,15.57,15.11c0,7.6-5.05,13.41-12.26,14.81,2.25,2.38,4.33,3.44,6.45,3.44,2.25,0,4.07-.89,5.64-2.72l1.53,1.82ZM-1438.93,552.32c7.13,0,12.43-5.26,12.43-12.31s-5.3-12.31-12.43-12.31-12.52,5.26-12.52,12.31,5.35,12.31,12.52,12.31Z"/>
    <path class="st3" d="M-1418.69,542.17v-17.02h3.14v16.89c0,7.04,3.31,10.27,9.08,10.27s9.12-3.23,9.12-10.27v-16.89h3.06v17.02c0,8.53-4.58,12.94-12.18,12.94s-12.22-4.41-12.22-12.94Z"/>
    <path class="st3" d="M-1365.94,552.15v2.72h-21.01v-29.7h20.37v2.72h-17.23v10.57h15.36v2.67h-15.36v11.03h17.87Z"/>
    <path class="st3" d="M-1345.92,527.87h-10.44v-2.72h24.02v2.72h-10.44v26.99h-3.14v-26.99Z"/>
    <path class="st3" d="M-1329.45,525.16h3.14v29.7h-3.14v-29.7Z"/>
    <path class="st3" d="M-1297.75,552.15v2.72h-21.01v-29.7h20.37v2.72h-17.23v10.57h15.36v2.67h-15.36v11.03h17.87Z"/>
    <path class="st3" d="M-1267.67,525.16v29.7h-2.59l-19.1-24.1v24.1h-3.14v-29.7h2.59l19.14,24.1v-24.1h3.1Z"/>
    <path class="st3" d="M-1239.11,552.15v2.72h-21.01v-29.7h20.37v2.72h-17.23v10.57h15.36v2.67h-15.36v11.03h17.87Z"/>
    <path class="st3" d="M-1236.7,551.25l1.23-2.42c2.12,2.08,5.9,3.61,9.8,3.61,5.56,0,7.98-2.33,7.98-5.26,0-8.15-18.29-3.14-18.29-14.13,0-4.37,3.4-8.15,10.95-8.15,3.35,0,6.83.98,9.21,2.63l-1.06,2.5c-2.55-1.66-5.52-2.46-8.15-2.46-5.43,0-7.85,2.42-7.85,5.39,0,8.15,18.29,3.23,18.29,14.05,0,4.37-3.48,8.1-11.08,8.1-4.46,0-8.83-1.57-11.03-3.86Z"/>
  </g>
  <g>
    <path class="st7" d="M-1797.23,480.92l-.14-58.74-28.81,48.39h-10.21l-28.67-47.13v57.48h-21.26v-97.9h18.74l36.64,60.84,36.08-60.84h18.6l.28,97.9h-21.26Z"/>
    <path class="st7" d="M-1674.29,459.94h-45.46l-8.67,20.98h-23.22l43.64-97.9h22.38l43.78,97.9h-23.78l-8.67-20.98ZM-1681.42,442.74l-15.52-37.48-15.52,37.48h31.05Z"/>
    <path class="st7" d="M-1552.89,430.43h20.7v39.72c-10.77,8.11-25.59,12.45-39.58,12.45-30.77,0-53.43-21.12-53.43-50.63s22.66-50.63,53.85-50.63c17.2,0,31.47,5.87,40.98,16.92l-14.55,13.43c-7.13-7.55-15.38-11.05-25.31-11.05-19.02,0-32.03,12.73-32.03,31.33s13.01,31.33,31.75,31.33c6.15,0,11.89-1.12,17.62-4.2v-28.67Z"/>
    <path class="st7" d="M-1497.23,383.02h22.66v97.9h-22.66v-97.9Z"/>
    <path class="st7" d="M-1443.52,431.97c0-29.51,22.66-50.63,53.15-50.63,16.92,0,31.05,6.15,40.28,17.34l-14.55,13.43c-6.57-7.55-14.83-11.47-24.62-11.47-18.32,0-31.33,12.87-31.33,31.33s13.01,31.33,31.33,31.33c9.79,0,18.04-3.92,24.62-11.61l14.55,13.43c-9.23,11.33-23.36,17.48-40.42,17.48-30.35,0-53.01-21.12-53.01-50.63Z"/>
    <path class="st7" d="M-1258.34,459.94h-45.46l-8.67,20.98h-23.22l43.64-97.9h22.38l43.78,97.9h-23.78l-8.67-20.98ZM-1265.48,442.74l-15.52-37.48-15.52,37.48h31.05Z"/>
  </g>
  <rect class="st9" x="-1791.7" y="21.74" width="16.5" height="90.74" rx="-879.35" ry="-879.35" transform="translate(-303.3 1064.29) rotate(36.12)"/>
  <rect class="st11" x="-1860.22" y="31.65" width="17.19" height="70.92" rx="-912.92" ry="-912.92" transform="translate(-32.53 -284.92) rotate(-8.88)"/>
  <rect class="st9" x="-1910.58" y="63.44" width="16.5" height="72.52" rx="-938.79" ry="-938.79" transform="translate(-861.39 -1495.69) rotate(-53.88)"/>
  <rect class="st11" x="-1769.61" y="97.78" width="17.19" height="70.92" rx="-867.62" ry="-867.62" transform="translate(-2164.4 -1586.12) rotate(-98.88)"/>
  <rect class="st9" x="-1786.48" y="154.01" width="16.5" height="72.52" rx="-876.74" ry="-876.74" transform="translate(-883.61 -1358.26) rotate(-53.88)"/>
  <path class="st9" d="M-1835.42,138.32"/>
  <path class="st11" d="M-1825.75,141.18l-14.83-10.83c-.89-.65-2.13-.45-2.78.43l-57.6,78.92v37.89l75.64-103.64c.65-.89.45-2.13-.43-2.78Z"/>
  <path class="st12" d="M-1900.42,209.24l-83.99,115.08c-20.6,28.22-54.83,36.75-85.7,48.09-39.35,14.44-69.82,43.58-85.23,82.71-9.57,24.29-13.03,55.88-.77,79.67,0,0,61.69,64.7,142.13-95.24,1.37-3.49,2.65-6.95,3.68-10.62-.24.84.06,2.16.07,3.02.05,2.53.09,5.06.08,7.58-.02,11.41-2.24,21.87-6.39,32.42-3.79,9.66-8.8,18.83-14.53,27.46-7.68,11.56-16.69,22.21-26.42,32.08-12.32,12.51-25.83,23.81-39.95,34.23,29.1-2.27,61.3-21.24,84.43-52.93,20.06-27.48,28.96-58.57,26.59-84.87-2.48-50.21,11.08-77.06,17.2-86.48.02-.03.04-.06.07-.09l68.47-93.81v-36.75l.73-1c-.15-.18-.29-.36-.44-.54Z"/>
  <g>
    <path d="M-717.48,340.22h-45.46l-8.67,20.98h-23.22l43.64-97.9h22.38l43.78,97.9h-23.78l-8.67-20.98ZM-724.61,323.02l-15.52-37.48-15.52,37.48h31.05Z"/>
    <path d="M-683.21,263.29h22.66v79.44h49.09v18.46h-71.75v-97.9Z"/>
    <path d="M-541.82,340.22h-45.46l-8.67,20.98h-23.22l43.64-97.9h22.38l43.78,97.9h-23.78l-8.67-20.98ZM-548.95,323.02l-15.52-37.48-15.52,37.48h31.05Z"/>
    <path d="M-515.1,312.25c0-29.51,22.66-50.63,53.15-50.63,16.92,0,31.05,6.15,40.28,17.34l-14.55,13.43c-6.57-7.55-14.83-11.47-24.62-11.47-18.32,0-31.33,12.87-31.33,31.33s13.01,31.33,31.33,31.33c9.79,0,18.04-3.92,24.62-11.61l14.55,13.43c-9.23,11.33-23.36,17.48-40.42,17.48-30.35,0-53.01-21.12-53.01-50.63Z"/>
    <path d="M-339.02,343.02v18.18h-75.81v-97.9h73.99v18.18h-51.47v21.26h45.46v17.62h-45.46v22.66h53.29Z"/>
    <path d="M-239.58,263.29v97.9h-18.6l-48.81-59.44v59.44h-22.38v-97.9h18.74l48.67,59.44v-59.44h22.38Z"/>
    <path d="M-160.28,340.22h-45.46l-8.67,20.98h-23.22l43.64-97.9h22.38l43.78,97.9h-23.78l-8.67-20.98ZM-167.41,323.02l-15.52-37.48-15.52,37.48h31.05Z"/>
  </g>
  <g>
    <path d="M-791.36,540.01c0-8.7,6.62-15.11,15.57-15.11,4.33,0,8.23,1.44,10.86,4.33l-1.99,1.99c-2.42-2.46-5.39-3.52-8.78-3.52-7.17,0-12.56,5.26-12.56,12.31s5.39,12.31,12.56,12.31c3.39,0,6.36-1.06,8.78-3.56l1.99,1.99c-2.63,2.89-6.54,4.37-10.91,4.37-8.91,0-15.53-6.41-15.53-15.11Z"/>
    <path d="M-740.05,554.86l-6.79-9.55c-.76.08-1.53.13-2.38.13h-7.98v9.42h-3.14v-29.7h11.12c7.55,0,12.14,3.82,12.14,10.18,0,4.67-2.46,7.94-6.79,9.34l7.26,10.18h-3.44ZM-740.22,535.34c0-4.75-3.14-7.47-9.08-7.47h-7.89v14.89h7.89c5.94,0,9.08-2.76,9.08-7.43Z"/>
    <path d="M-710.77,552.15v2.72h-21.01v-29.7h20.37v2.72h-17.23v10.57h15.36v2.67h-15.36v11.03h17.87Z"/>
    <path d="M-686.89,546.93h-16.55l-3.56,7.94h-3.27l13.58-29.7h3.1l13.58,29.7h-3.31l-3.56-7.94ZM-688.03,544.38l-7.13-15.96-7.13,15.96h14.26Z"/>
    <path d="M-637.37,525.16v29.7h-3.01v-23.76l-11.67,19.99h-1.49l-11.67-19.86v23.64h-3.01v-29.7h2.59l12.9,22.02,12.77-22.02h2.59Z"/>
    <path d="M-611.19,546.93h-16.55l-3.56,7.94h-3.27l13.58-29.7h3.1l13.58,29.7h-3.31l-3.56-7.94ZM-612.33,544.38l-7.13-15.96-7.13,15.96h14.26Z"/>
    <path d="M-581.02,540.01h3.01v11.33c-2.8,2.5-6.79,3.78-10.91,3.78-9.04,0-15.66-6.41-15.66-15.11s6.62-15.11,15.7-15.11c4.5,0,8.4,1.44,11.03,4.29l-1.95,1.99c-2.5-2.46-5.47-3.48-8.95-3.48-7.34,0-12.73,5.22-12.73,12.31s5.39,12.31,12.69,12.31c2.84,0,5.47-.64,7.77-2.29v-10.01Z"/>
    <path d="M-571.26,525.16h3.14v29.7h-3.14v-29.7Z"/>
    <path d="M-541.94,546.93h-16.55l-3.56,7.94h-3.27l13.58-29.7h3.1l13.58,29.7h-3.31l-3.56-7.94ZM-543.08,544.38l-7.13-15.96-7.13,15.96h14.26Z"/>
    <path d="M-525.9,540.01c0-8.7,6.62-15.11,15.57-15.11,4.33,0,8.23,1.44,10.86,4.33l-1.99,1.99c-2.42-2.46-5.39-3.52-8.78-3.52-7.17,0-12.56,5.26-12.56,12.31s5.39,12.31,12.56,12.31c3.39,0,6.36-1.06,8.78-3.56l1.99,1.99c-2.63,2.89-6.54,4.37-10.91,4.37-8.91,0-15.53-6.41-15.53-15.11Z"/>
    <path d="M-498.15,540.01c0-8.66,6.62-15.11,15.62-15.11s15.57,6.41,15.57,15.11-6.66,15.11-15.57,15.11-15.62-6.45-15.62-15.11ZM-470.1,540.01c0-7.09-5.3-12.31-12.43-12.31s-12.52,5.22-12.52,12.31,5.35,12.31,12.52,12.31,12.43-5.22,12.43-12.31Z"/>
    <path d="M-437.21,525.16v29.7h-2.59l-19.1-24.1v24.1h-3.14v-29.7h2.59l19.14,24.1v-24.1h3.1Z"/>
    <path d="M-420.67,525.16h3.14v26.99h16.63v2.72h-19.77v-29.7Z"/>
    <path d="M-401.02,540.01c0-8.66,6.62-15.11,15.62-15.11s15.57,6.41,15.57,15.11-6.66,15.11-15.57,15.11-15.62-6.45-15.62-15.11ZM-372.97,540.01c0-7.09-5.3-12.31-12.43-12.31s-12.52,5.22-12.52,12.31,5.35,12.31,12.52,12.31,12.43-5.22,12.43-12.31Z"/>
    <path d="M-326,557.36c-1.82,2.21-4.33,3.4-7.21,3.4-3.48,0-6.37-1.57-10.27-5.64-8.7-.25-15.06-6.62-15.06-15.11s6.62-15.11,15.62-15.11,15.57,6.41,15.57,15.11c0,7.6-5.05,13.41-12.26,14.81,2.25,2.38,4.33,3.44,6.45,3.44,2.25,0,4.07-.89,5.64-2.72l1.53,1.82ZM-342.93,552.32c7.13,0,12.43-5.26,12.43-12.31s-5.3-12.31-12.43-12.31-12.52,5.26-12.52,12.31,5.35,12.31,12.52,12.31Z"/>
    <path d="M-322.69,542.17v-17.02h3.14v16.89c0,7.04,3.31,10.27,9.08,10.27s9.12-3.23,9.12-10.27v-16.89h3.06v17.02c0,8.53-4.58,12.94-12.18,12.94s-12.22-4.41-12.22-12.94Z"/>
    <path d="M-269.94,552.15v2.72h-21.01v-29.7h20.37v2.72h-17.23v10.57h15.36v2.67h-15.36v11.03h17.87Z"/>
    <path d="M-249.92,527.87h-10.44v-2.72h24.02v2.72h-10.44v26.99h-3.14v-26.99Z"/>
    <path d="M-233.45,525.16h3.14v29.7h-3.14v-29.7Z"/>
    <path d="M-201.75,552.15v2.72h-21.01v-29.7h20.37v2.72h-17.23v10.57h15.36v2.67h-15.36v11.03h17.87Z"/>
    <path d="M-171.67,525.16v29.7h-2.59l-19.1-24.1v24.1h-3.14v-29.7h2.59l19.14,24.1v-24.1h3.1Z"/>
    <path d="M-143.11,552.15v2.72h-21.01v-29.7h20.37v2.72h-17.23v10.57h15.36v2.67h-15.36v11.03h17.87Z"/>
    <path d="M-140.7,551.25l1.23-2.42c2.12,2.08,5.9,3.61,9.8,3.61,5.56,0,7.98-2.33,7.98-5.26,0-8.15-18.29-3.14-18.29-14.13,0-4.37,3.4-8.15,10.95-8.15,3.35,0,6.83.98,9.21,2.63l-1.06,2.5c-2.55-1.66-5.52-2.46-8.15-2.46-5.43,0-7.85,2.42-7.85,5.39,0,8.15,18.29,3.23,18.29,14.05,0,4.37-3.48,8.1-11.08,8.1-4.46,0-8.83-1.57-11.03-3.86Z"/>
  </g>
  <g>
    <path class="st8" d="M-701.23,480.92l-.14-58.74-28.81,48.39h-10.21l-28.67-47.13v57.48h-21.26v-97.9h18.74l36.64,60.84,36.08-60.84h18.6l.28,97.9h-21.26Z"/>
    <path class="st8" d="M-578.29,459.94h-45.46l-8.67,20.98h-23.22l43.64-97.9h22.38l43.78,97.9h-23.78l-8.67-20.98ZM-585.42,442.74l-15.52-37.48-15.52,37.48h31.05Z"/>
    <path class="st8" d="M-456.89,430.43h20.7v39.72c-10.77,8.11-25.59,12.45-39.58,12.45-30.77,0-53.43-21.12-53.43-50.63s22.66-50.63,53.85-50.63c17.2,0,31.47,5.87,40.98,16.92l-14.55,13.43c-7.13-7.55-15.38-11.05-25.31-11.05-19.02,0-32.03,12.73-32.03,31.33s13.01,31.33,31.75,31.33c6.15,0,11.89-1.12,17.62-4.2v-28.67Z"/>
    <path class="st8" d="M-401.23,383.02h22.66v97.9h-22.66v-97.9Z"/>
    <path class="st8" d="M-347.52,431.97c0-29.51,22.66-50.63,53.15-50.63,16.92,0,31.05,6.15,40.28,17.34l-14.55,13.43c-6.57-7.55-14.83-11.47-24.62-11.47-18.32,0-31.33,12.87-31.33,31.33s13.01,31.33,31.33,31.33c9.79,0,18.04-3.92,24.62-11.61l14.55,13.43c-9.23,11.33-23.36,17.48-40.42,17.48-30.35,0-53.01-21.12-53.01-50.63Z"/>
    <path class="st8" d="M-162.34,459.94h-45.46l-8.67,20.98h-23.22l43.64-97.9h22.38l43.78,97.9h-23.78l-8.67-20.98ZM-169.48,442.74l-15.52-37.48-15.52,37.48h31.05Z"/>
  </g>
  <rect class="st6" x="-695.7" y="21.74" width="16.5" height="90.74" rx="-331.35" ry="-331.35" transform="translate(-92.6 418.17) rotate(36.12)"/>
  <rect class="st4" x="-764.22" y="31.65" width="17.19" height="70.92" rx="-364.92" ry="-364.92" transform="translate(-19.41 -115.8) rotate(-8.88)"/>
  <rect class="st6" x="-814.58" y="63.44" width="16.5" height="72.52" rx="-390.79" ry="-390.79" transform="translate(-411.51 -610.39) rotate(-53.88)"/>
  <rect class="st4" x="-673.61" y="97.78" width="17.19" height="70.92" rx="-319.62" ry="-319.62" transform="translate(-899.28 -503.24) rotate(-98.88)"/>
  <rect class="st6" x="-690.48" y="154.01" width="16.5" height="72.52" rx="-328.74" ry="-328.74" transform="translate(-433.73 -472.97) rotate(-53.88)"/>
  <path class="st6" d="M-739.42,138.32"/>
  <path class="st4" d="M-729.75,141.18l-14.83-10.83c-.89-.65-2.13-.45-2.78.43l-57.6,78.92v37.89l75.64-103.64c.65-.89.45-2.13-.43-2.78Z"/>
  <path class="st1" d="M-804.42,209.24l-83.99,115.08c-20.6,28.22-54.83,36.75-85.7,48.09-39.35,14.44-69.82,43.58-85.23,82.71-9.57,24.29-13.03,55.88-.77,79.67,0,0,61.69,64.7,142.13-95.24,1.37-3.49,2.65-6.95,3.68-10.62-.24.84.06,2.16.07,3.02.05,2.53.09,5.06.08,7.58-.02,11.41-2.24,21.87-6.39,32.42-3.79,9.66-8.8,18.83-14.53,27.46-7.68,11.56-16.69,22.21-26.42,32.08-12.32,12.51-25.83,23.81-39.95,34.23,29.1-2.27,61.3-21.24,84.43-52.93,20.06-27.48,28.96-58.57,26.59-84.87-2.48-50.21,11.08-77.06,17.2-86.48.02-.03.04-.06.07-.09l68.47-93.81v-36.75l.73-1c-.15-.18-.29-.36-.44-.54Z"/>
  <g>
    <path class="st10" d="M-1813.48,1436.22h-45.46l-8.67,20.98h-23.22l43.64-97.9h22.38l43.78,97.9h-23.78l-8.67-20.98ZM-1820.61,1419.02l-15.52-37.48-15.52,37.48h31.05Z"/>
    <path class="st10" d="M-1779.21,1359.29h22.66v79.44h49.09v18.46h-71.75v-97.9Z"/>
    <path class="st10" d="M-1637.82,1436.22h-45.46l-8.67,20.98h-23.22l43.64-97.9h22.38l43.78,97.9h-23.78l-8.67-20.98ZM-1644.95,1419.02l-15.52-37.48-15.52,37.48h31.05Z"/>
    <path class="st10" d="M-1611.1,1408.25c0-29.51,22.66-50.63,53.15-50.63,16.92,0,31.05,6.15,40.28,17.34l-14.55,13.43c-6.57-7.55-14.83-11.47-24.62-11.47-18.32,0-31.33,12.87-31.33,31.33s13.01,31.33,31.33,31.33c9.79,0,18.04-3.92,24.62-11.61l14.55,13.43c-9.23,11.33-23.36,17.48-40.42,17.48-30.35,0-53.01-21.12-53.01-50.63Z"/>
    <path class="st10" d="M-1435.02,1439.02v18.18h-75.81v-97.9h73.99v18.18h-51.47v21.26h45.46v17.62h-45.46v22.66h53.29Z"/>
    <path class="st10" d="M-1335.58,1359.29v97.9h-18.6l-48.81-59.44v59.44h-22.38v-97.9h18.74l48.67,59.44v-59.44h22.38Z"/>
    <path class="st10" d="M-1256.28,1436.22h-45.46l-8.67,20.98h-23.22l43.64-97.9h22.38l43.78,97.9h-23.78l-8.67-20.98ZM-1263.41,1419.02l-15.52-37.48-15.52,37.48h31.05Z"/>
  </g>
  <g>
    <path class="st10" d="M-1887.36,1636.01c0-8.7,6.62-15.11,15.57-15.11,4.33,0,8.23,1.44,10.86,4.33l-1.99,1.99c-2.42-2.46-5.39-3.52-8.78-3.52-7.17,0-12.56,5.26-12.56,12.31s5.39,12.31,12.56,12.31c3.39,0,6.36-1.06,8.78-3.56l1.99,1.99c-2.63,2.89-6.54,4.37-10.91,4.37-8.91,0-15.53-6.41-15.53-15.11Z"/>
    <path class="st10" d="M-1836.05,1650.86l-6.79-9.55c-.76.08-1.53.13-2.38.13h-7.98v9.42h-3.14v-29.7h11.12c7.55,0,12.14,3.82,12.14,10.18,0,4.67-2.46,7.94-6.79,9.34l7.26,10.18h-3.44ZM-1836.22,1631.34c0-4.75-3.14-7.47-9.08-7.47h-7.89v14.89h7.89c5.94,0,9.08-2.76,9.08-7.43Z"/>
    <path class="st10" d="M-1806.77,1648.15v2.72h-21.01v-29.7h20.37v2.72h-17.23v10.57h15.36v2.67h-15.36v11.03h17.87Z"/>
    <path class="st10" d="M-1782.89,1642.93h-16.55l-3.56,7.94h-3.27l13.58-29.7h3.1l13.58,29.7h-3.31l-3.56-7.94ZM-1784.03,1640.38l-7.13-15.96-7.13,15.96h14.26Z"/>
    <path class="st10" d="M-1733.37,1621.16v29.7h-3.01v-23.76l-11.67,19.99h-1.49l-11.67-19.86v23.64h-3.01v-29.7h2.59l12.9,22.02,12.77-22.02h2.59Z"/>
    <path class="st10" d="M-1707.19,1642.93h-16.55l-3.56,7.94h-3.27l13.58-29.7h3.1l13.58,29.7h-3.31l-3.56-7.94ZM-1708.33,1640.38l-7.13-15.96-7.13,15.96h14.26Z"/>
    <path class="st10" d="M-1677.02,1636.01h3.01v11.33c-2.8,2.5-6.79,3.78-10.91,3.78-9.04,0-15.66-6.41-15.66-15.11s6.62-15.11,15.7-15.11c4.5,0,8.4,1.44,11.03,4.29l-1.95,1.99c-2.5-2.46-5.47-3.48-8.95-3.48-7.34,0-12.73,5.22-12.73,12.31s5.39,12.31,12.69,12.31c2.84,0,5.47-.64,7.77-2.29v-10.01Z"/>
    <path class="st10" d="M-1667.26,1621.16h3.14v29.7h-3.14v-29.7Z"/>
    <path class="st10" d="M-1637.94,1642.93h-16.55l-3.56,7.94h-3.27l13.58-29.7h3.1l13.58,29.7h-3.31l-3.56-7.94ZM-1639.08,1640.38l-7.13-15.96-7.13,15.96h14.26Z"/>
    <path class="st10" d="M-1621.9,1636.01c0-8.7,6.62-15.11,15.57-15.11,4.33,0,8.23,1.44,10.86,4.33l-1.99,1.99c-2.42-2.46-5.39-3.52-8.78-3.52-7.17,0-12.56,5.26-12.56,12.31s5.39,12.31,12.56,12.31c3.39,0,6.36-1.06,8.78-3.56l1.99,1.99c-2.63,2.89-6.54,4.37-10.91,4.37-8.91,0-15.53-6.41-15.53-15.11Z"/>
    <path class="st10" d="M-1594.15,1636.01c0-8.66,6.62-15.11,15.62-15.11s15.57,6.41,15.57,15.11-6.66,15.11-15.57,15.11-15.62-6.45-15.62-15.11ZM-1566.1,1636.01c0-7.09-5.3-12.31-12.43-12.31s-12.52,5.22-12.52,12.31,5.35,12.31,12.52,12.31,12.43-5.22,12.43-12.31Z"/>
    <path class="st10" d="M-1533.21,1621.16v29.7h-2.59l-19.1-24.1v24.1h-3.14v-29.7h2.59l19.14,24.1v-24.1h3.1Z"/>
    <path class="st10" d="M-1516.67,1621.16h3.14v26.99h16.63v2.72h-19.77v-29.7Z"/>
    <path class="st10" d="M-1497.02,1636.01c0-8.66,6.62-15.11,15.62-15.11s15.57,6.41,15.57,15.11-6.66,15.11-15.57,15.11-15.62-6.45-15.62-15.11ZM-1468.97,1636.01c0-7.09-5.3-12.31-12.43-12.31s-12.52,5.22-12.52,12.31,5.35,12.31,12.52,12.31,12.43-5.22,12.43-12.31Z"/>
    <path class="st10" d="M-1422,1653.36c-1.82,2.21-4.33,3.4-7.21,3.4-3.48,0-6.37-1.57-10.27-5.64-8.7-.25-15.06-6.62-15.06-15.11s6.62-15.11,15.62-15.11,15.57,6.41,15.57,15.11c0,7.6-5.05,13.41-12.26,14.81,2.25,2.38,4.33,3.44,6.45,3.44,2.25,0,4.07-.89,5.64-2.72l1.53,1.82ZM-1438.93,1648.32c7.13,0,12.43-5.26,12.43-12.31s-5.3-12.31-12.43-12.31-12.52,5.26-12.52,12.31,5.35,12.31,12.52,12.31Z"/>
    <path class="st10" d="M-1418.69,1638.17v-17.02h3.14v16.89c0,7.04,3.31,10.27,9.08,10.27s9.12-3.23,9.12-10.27v-16.89h3.06v17.02c0,8.53-4.58,12.94-12.18,12.94s-12.22-4.41-12.22-12.94Z"/>
    <path class="st10" d="M-1365.94,1648.15v2.72h-21.01v-29.7h20.37v2.72h-17.23v10.57h15.36v2.67h-15.36v11.03h17.87Z"/>
    <path class="st10" d="M-1345.92,1623.87h-10.44v-2.72h24.02v2.72h-10.44v26.99h-3.14v-26.99Z"/>
    <path class="st10" d="M-1329.45,1621.16h3.14v29.7h-3.14v-29.7Z"/>
    <path class="st10" d="M-1297.75,1648.15v2.72h-21.01v-29.7h20.37v2.72h-17.23v10.57h15.36v2.67h-15.36v11.03h17.87Z"/>
    <path class="st10" d="M-1267.67,1621.16v29.7h-2.59l-19.1-24.1v24.1h-3.14v-29.7h2.59l19.14,24.1v-24.1h3.1Z"/>
    <path class="st10" d="M-1239.11,1648.15v2.72h-21.01v-29.7h20.37v2.72h-17.23v10.57h15.36v2.67h-15.36v11.03h17.87Z"/>
    <path class="st10" d="M-1236.7,1647.25l1.23-2.42c2.12,2.08,5.9,3.61,9.8,3.61,5.56,0,7.98-2.33,7.98-5.26,0-8.15-18.29-3.14-18.29-14.13,0-4.37,3.4-8.15,10.95-8.15,3.35,0,6.83.98,9.21,2.63l-1.06,2.5c-2.55-1.66-5.52-2.46-8.15-2.46-5.43,0-7.85,2.42-7.85,5.39,0,8.15,18.29,3.23,18.29,14.05,0,4.37-3.48,8.1-11.08,8.1-4.46,0-8.83-1.57-11.03-3.86Z"/>
  </g>
  <g>
    <path class="st10" d="M-1797.23,1576.92l-.14-58.74-28.81,48.39h-10.21l-28.67-47.13v57.48h-21.26v-97.9h18.74l36.64,60.84,36.08-60.84h18.6l.28,97.9h-21.26Z"/>
    <path class="st10" d="M-1674.29,1555.94h-45.46l-8.67,20.98h-23.22l43.64-97.9h22.38l43.78,97.9h-23.78l-8.67-20.98ZM-1681.42,1538.74l-15.52-37.48-15.52,37.48h31.05Z"/>
    <path class="st10" d="M-1552.89,1526.43h20.7v39.72c-10.77,8.11-25.59,12.45-39.58,12.45-30.77,0-53.43-21.12-53.43-50.63s22.66-50.63,53.85-50.63c17.2,0,31.47,5.87,40.98,16.92l-14.55,13.43c-7.13-7.55-15.38-11.05-25.31-11.05-19.02,0-32.03,12.73-32.03,31.33s13.01,31.33,31.75,31.33c6.15,0,11.89-1.12,17.62-4.2v-28.67Z"/>
    <path class="st10" d="M-1497.23,1479.02h22.66v97.9h-22.66v-97.9Z"/>
    <path class="st10" d="M-1443.52,1527.97c0-29.51,22.66-50.63,53.15-50.63,16.92,0,31.05,6.15,40.28,17.34l-14.55,13.43c-6.57-7.55-14.83-11.47-24.62-11.47-18.32,0-31.33,12.87-31.33,31.33s13.01,31.33,31.33,31.33c9.79,0,18.04-3.92,24.62-11.61l14.55,13.43c-9.23,11.33-23.36,17.48-40.42,17.48-30.35,0-53.01-21.12-53.01-50.63Z"/>
    <path class="st10" d="M-1258.34,1555.94h-45.46l-8.67,20.98h-23.22l43.64-97.9h22.38l43.78,97.9h-23.78l-8.67-20.98ZM-1265.48,1538.74l-15.52-37.48-15.52,37.48h31.05Z"/>
  </g>
  <rect class="st10" x="-1791.7" y="1117.74" width="16.5" height="90.74" rx="-879.35" ry="-879.35" transform="translate(342.82 1275) rotate(36.12)"/>
  <rect class="st10" x="-1860.22" y="1127.65" width="17.19" height="70.92" rx="-912.92" ry="-912.92" transform="translate(-201.65 -271.79) rotate(-8.88)"/>
  <rect class="st10" x="-1910.58" y="1159.44" width="16.5" height="72.52" rx="-938.79" ry="-938.79" transform="translate(-1746.68 -1045.81) rotate(-53.88)"/>
  <rect class="st10" x="-1769.61" y="1193.78" width="17.19" height="70.92" rx="-867.62" ry="-867.62" transform="translate(-3247.28 -321) rotate(-98.88)"/>
  <rect class="st10" x="-1786.48" y="1250.01" width="16.5" height="72.52" rx="-876.74" ry="-876.74" transform="translate(-1768.91 -908.38) rotate(-53.88)"/>
  <path class="st10" d="M-1835.42,1234.32"/>
  <path class="st10" d="M-1825.75,1237.18l-14.83-10.83c-.89-.65-2.13-.45-2.78.43l-57.6,78.92v.27l-83.45,114.34c-20.6,28.22-54.83,36.75-85.7,48.09-39.35,14.44-69.82,43.58-85.23,82.71-9.57,24.29-13.03,55.88-.77,79.67,0,0,61.69,64.7,142.13-95.24,1.37-3.49,2.65-6.95,3.68-10.62-.24.84.06,2.16.07,3.02.05,2.53.09,5.06.08,7.58-.02,11.41-2.24,21.87-6.39,32.42-3.79,9.66-8.8,18.83-14.53,27.46-7.68,11.56-16.69,22.21-26.42,32.08-12.32,12.51-25.83,23.81-39.95,34.23,29.1-2.27,61.3-21.24,84.43-52.93,20.06-27.48,28.96-58.57,26.59-84.87-2.48-50.21,11.08-77.06,17.2-86.48.02-.03.04-.06.07-.09l68.47-93.81v-.27l75.4-103.3c.65-.89.45-2.13-.43-2.78Z"/>
  <g>
    <path class="st0" d="M-717.48,1436.22h-45.46l-8.67,20.98h-23.22l43.64-97.9h22.38l43.78,97.9h-23.78l-8.67-20.98ZM-724.61,1419.02l-15.52-37.48-15.52,37.48h31.05Z"/>
    <path class="st0" d="M-683.21,1359.29h22.66v79.44h49.09v18.46h-71.75v-97.9Z"/>
    <path class="st0" d="M-541.82,1436.22h-45.46l-8.67,20.98h-23.22l43.64-97.9h22.38l43.78,97.9h-23.78l-8.67-20.98ZM-548.95,1419.02l-15.52-37.48-15.52,37.48h31.05Z"/>
    <path class="st0" d="M-515.1,1408.25c0-29.51,22.66-50.63,53.15-50.63,16.92,0,31.05,6.15,40.28,17.34l-14.55,13.43c-6.57-7.55-14.83-11.47-24.62-11.47-18.32,0-31.33,12.87-31.33,31.33s13.01,31.33,31.33,31.33c9.79,0,18.04-3.92,24.62-11.61l14.55,13.43c-9.23,11.33-23.36,17.48-40.42,17.48-30.35,0-53.01-21.12-53.01-50.63Z"/>
    <path class="st0" d="M-339.02,1439.02v18.18h-75.81v-97.9h73.99v18.18h-51.47v21.26h45.46v17.62h-45.46v22.66h53.29Z"/>
    <path class="st0" d="M-239.58,1359.29v97.9h-18.6l-48.81-59.44v59.44h-22.38v-97.9h18.74l48.67,59.44v-59.44h22.38Z"/>
    <path class="st0" d="M-160.28,1436.22h-45.46l-8.67,20.98h-23.22l43.64-97.9h22.38l43.78,97.9h-23.78l-8.67-20.98ZM-167.41,1419.02l-15.52-37.48-15.52,37.48h31.05Z"/>
  </g>
  <g>
    <path class="st0" d="M-791.36,1636.01c0-8.7,6.62-15.11,15.57-15.11,4.33,0,8.23,1.44,10.86,4.33l-1.99,1.99c-2.42-2.46-5.39-3.52-8.78-3.52-7.17,0-12.56,5.26-12.56,12.31s5.39,12.31,12.56,12.31c3.39,0,6.36-1.06,8.78-3.56l1.99,1.99c-2.63,2.89-6.54,4.37-10.91,4.37-8.91,0-15.53-6.41-15.53-15.11Z"/>
    <path class="st0" d="M-740.05,1650.86l-6.79-9.55c-.76.08-1.53.13-2.38.13h-7.98v9.42h-3.14v-29.7h11.12c7.55,0,12.14,3.82,12.14,10.18,0,4.67-2.46,7.94-6.79,9.34l7.26,10.18h-3.44ZM-740.22,1631.34c0-4.75-3.14-7.47-9.08-7.47h-7.89v14.89h7.89c5.94,0,9.08-2.76,9.08-7.43Z"/>
    <path class="st0" d="M-710.77,1648.15v2.72h-21.01v-29.7h20.37v2.72h-17.23v10.57h15.36v2.67h-15.36v11.03h17.87Z"/>
    <path class="st0" d="M-686.89,1642.93h-16.55l-3.56,7.94h-3.27l13.58-29.7h3.1l13.58,29.7h-3.31l-3.56-7.94ZM-688.03,1640.38l-7.13-15.96-7.13,15.96h14.26Z"/>
    <path class="st0" d="M-637.37,1621.16v29.7h-3.01v-23.76l-11.67,19.99h-1.49l-11.67-19.86v23.64h-3.01v-29.7h2.59l12.9,22.02,12.77-22.02h2.59Z"/>
    <path class="st0" d="M-611.19,1642.93h-16.55l-3.56,7.94h-3.27l13.58-29.7h3.1l13.58,29.7h-3.31l-3.56-7.94ZM-612.33,1640.38l-7.13-15.96-7.13,15.96h14.26Z"/>
    <path class="st0" d="M-581.02,1636.01h3.01v11.33c-2.8,2.5-6.79,3.78-10.91,3.78-9.04,0-15.66-6.41-15.66-15.11s6.62-15.11,15.7-15.11c4.5,0,8.4,1.44,11.03,4.29l-1.95,1.99c-2.5-2.46-5.47-3.48-8.95-3.48-7.34,0-12.73,5.22-12.73,12.31s5.39,12.31,12.69,12.31c2.84,0,5.47-.64,7.77-2.29v-10.01Z"/>
    <path class="st0" d="M-571.26,1621.16h3.14v29.7h-3.14v-29.7Z"/>
    <path class="st0" d="M-541.94,1642.93h-16.55l-3.56,7.94h-3.27l13.58-29.7h3.1l13.58,29.7h-3.31l-3.56-7.94ZM-543.08,1640.38l-7.13-15.96-7.13,15.96h14.26Z"/>
    <path class="st0" d="M-525.9,1636.01c0-8.7,6.62-15.11,15.57-15.11,4.33,0,8.23,1.44,10.86,4.33l-1.99,1.99c-2.42-2.46-5.39-3.52-8.78-3.52-7.17,0-12.56,5.26-12.56,12.31s5.39,12.31,12.56,12.31c3.39,0,6.36-1.06,8.78-3.56l1.99,1.99c-2.63,2.89-6.54,4.37-10.91,4.37-8.91,0-15.53-6.41-15.53-15.11Z"/>
    <path class="st0" d="M-498.15,1636.01c0-8.66,6.62-15.11,15.62-15.11s15.57,6.41,15.57,15.11-6.66,15.11-15.57,15.11-15.62-6.45-15.62-15.11ZM-470.1,1636.01c0-7.09-5.3-12.31-12.43-12.31s-12.52,5.22-12.52,12.31,5.35,12.31,12.52,12.31,12.43-5.22,12.43-12.31Z"/>
    <path class="st0" d="M-437.21,1621.16v29.7h-2.59l-19.1-24.1v24.1h-3.14v-29.7h2.59l19.14,24.1v-24.1h3.1Z"/>
    <path class="st0" d="M-420.67,1621.16h3.14v26.99h16.63v2.72h-19.77v-29.7Z"/>
    <path class="st0" d="M-401.02,1636.01c0-8.66,6.62-15.11,15.62-15.11s15.57,6.41,15.57,15.11-6.66,15.11-15.57,15.11-15.62-6.45-15.62-15.11ZM-372.97,1636.01c0-7.09-5.3-12.31-12.43-12.31s-12.52,5.22-12.52,12.31,5.35,12.31,12.52,12.31,12.43-5.22,12.43-12.31Z"/>
    <path class="st0" d="M-326,1653.36c-1.82,2.21-4.33,3.4-7.21,3.4-3.48,0-6.37-1.57-10.27-5.64-8.7-.25-15.06-6.62-15.06-15.11s6.62-15.11,15.62-15.11,15.57,6.41,15.57,15.11c0,7.6-5.05,13.41-12.26,14.81,2.25,2.38,4.33,3.44,6.45,3.44,2.25,0,4.07-.89,5.64-2.72l1.53,1.82ZM-342.93,1648.32c7.13,0,12.43-5.26,12.43-12.31s-5.3-12.31-12.43-12.31-12.52,5.26-12.52,12.31,5.35,12.31,12.52,12.31Z"/>
    <path class="st0" d="M-322.69,1638.17v-17.02h3.14v16.89c0,7.04,3.31,10.27,9.08,10.27s9.12-3.23,9.12-10.27v-16.89h3.06v17.02c0,8.53-4.58,12.94-12.18,12.94s-12.22-4.41-12.22-12.94Z"/>
    <path class="st0" d="M-269.94,1648.15v2.72h-21.01v-29.7h20.37v2.72h-17.23v10.57h15.36v2.67h-15.36v11.03h17.87Z"/>
    <path class="st0" d="M-249.92,1623.87h-10.44v-2.72h24.02v2.72h-10.44v26.99h-3.14v-26.99Z"/>
    <path class="st0" d="M-233.45,1621.16h3.14v29.7h-3.14v-29.7Z"/>
    <path class="st0" d="M-201.75,1648.15v2.72h-21.01v-29.7h20.37v2.72h-17.23v10.57h15.36v2.67h-15.36v11.03h17.87Z"/>
    <path class="st0" d="M-171.67,1621.16v29.7h-2.59l-19.1-24.1v24.1h-3.14v-29.7h2.59l19.14,24.1v-24.1h3.1Z"/>
    <path class="st0" d="M-143.11,1648.15v2.72h-21.01v-29.7h20.37v2.72h-17.23v10.57h15.36v2.67h-15.36v11.03h17.87Z"/>
    <path class="st0" d="M-140.7,1647.25l1.23-2.42c2.12,2.08,5.9,3.61,9.8,3.61,5.56,0,7.98-2.33,7.98-5.26,0-8.15-18.29-3.14-18.29-14.13,0-4.37,3.4-8.15,10.95-8.15,3.35,0,6.83.98,9.21,2.63l-1.06,2.5c-2.55-1.66-5.52-2.46-8.15-2.46-5.43,0-7.85,2.42-7.85,5.39,0,8.15,18.29,3.23,18.29,14.05,0,4.37-3.48,8.1-11.08,8.1-4.46,0-8.83-1.57-11.03-3.86Z"/>
  </g>
  <g>
    <path class="st0" d="M-701.23,1576.92l-.14-58.74-28.81,48.39h-10.21l-28.67-47.13v57.48h-21.26v-97.9h18.74l36.64,60.84,36.08-60.84h18.6l.28,97.9h-21.26Z"/>
    <path class="st0" d="M-578.29,1555.94h-45.46l-8.67,20.98h-23.22l43.64-97.9h22.38l43.78,97.9h-23.78l-8.67-20.98ZM-585.42,1538.74l-15.52-37.48-15.52,37.48h31.05Z"/>
    <path class="st0" d="M-456.89,1526.43h20.7v39.72c-10.77,8.11-25.59,12.45-39.58,12.45-30.77,0-53.43-21.12-53.43-50.63s22.66-50.63,53.85-50.63c17.2,0,31.47,5.87,40.98,16.92l-14.55,13.43c-7.13-7.55-15.38-11.05-25.31-11.05-19.02,0-32.03,12.73-32.03,31.33s13.01,31.33,31.75,31.33c6.15,0,11.89-1.12,17.62-4.2v-28.67Z"/>
    <path class="st0" d="M-401.23,1479.02h22.66v97.9h-22.66v-97.9Z"/>
    <path class="st0" d="M-347.52,1527.97c0-29.51,22.66-50.63,53.15-50.63,16.92,0,31.05,6.15,40.28,17.34l-14.55,13.43c-6.57-7.55-14.83-11.47-24.62-11.47-18.32,0-31.33,12.87-31.33,31.33s13.01,31.33,31.33,31.33c9.79,0,18.04-3.92,24.62-11.61l14.55,13.43c-9.23,11.33-23.36,17.48-40.42,17.48-30.35,0-53.01-21.12-53.01-50.63Z"/>
    <path class="st0" d="M-162.34,1555.94h-45.46l-8.67,20.98h-23.22l43.64-97.9h22.38l43.78,97.9h-23.78l-8.67-20.98ZM-169.48,1538.74l-15.52-37.48-15.52,37.48h31.05Z"/>
  </g>
  <rect class="st0" x="-695.7" y="1117.74" width="16.5" height="90.74" rx="-331.35" ry="-331.35" transform="translate(553.52 628.88) rotate(36.12)"/>
  <rect class="st0" x="-764.22" y="1127.65" width="17.19" height="70.92" rx="-364.92" ry="-364.92" transform="translate(-188.53 -102.67) rotate(-8.88)"/>
  <rect class="st0" x="-814.58" y="1159.44" width="16.5" height="72.52" rx="-390.79" ry="-390.79" transform="translate(-1296.8 -160.51) rotate(-53.88)"/>
  <rect class="st0" x="-673.61" y="1193.78" width="17.19" height="70.92" rx="-319.62" ry="-319.62" transform="translate(-1982.16 761.88) rotate(-98.88)"/>
  <rect class="st0" x="-690.48" y="1250.01" width="16.5" height="72.52" rx="-328.74" ry="-328.74" transform="translate(-1319.03 -23.09) rotate(-53.88)"/>
  <path class="st0" d="M-739.42,1234.32"/>
  <path class="st0" d="M-729.75,1237.18l-14.83-10.83c-.89-.65-2.13-.45-2.78.43l-57.6,78.92v37.89l75.64-103.64c.65-.89.45-2.13-.43-2.78Z"/>
  <path class="st0" d="M-804.42,1305.24l-83.99,115.08c-20.6,28.22-54.83,36.75-85.7,48.09-39.35,14.44-69.82,43.58-85.23,82.71-9.57,24.29-13.03,55.88-.77,79.67,0,0,61.69,64.7,142.13-95.24,1.37-3.49,2.65-6.95,3.68-10.62-.24.84.06,2.16.07,3.02.05,2.53.09,5.06.08,7.58-.02,11.41-2.24,21.87-6.39,32.42-3.79,9.66-8.8,18.83-14.53,27.46-7.68,11.56-16.69,22.21-26.42,32.08-12.32,12.51-25.83,23.81-39.95,34.23,29.1-2.27,61.3-21.24,84.43-52.93,20.06-27.48,28.96-58.57,26.59-84.87-2.48-50.21,11.08-77.06,17.2-86.48.02-.03.04-.06.07-.09l68.47-93.81v-36.75l.73-1c-.15-.18-.29-.36-.44-.54Z"/>
  <rect class="st7" width="192.56" height="633.43"/>
  <rect class="st5" x="201.86" width="192.56" height="633.43"/>
  <rect class="st9" x="403.72" width="192.56" height="633.43"/>
  <rect class="st11" x="605.58" width="192.56" height="633.43"/>
  <rect class="st3" x="807.44" width="192.56" height="633.43"/>
  <text class="st2" transform="translate(181.61 622.1) rotate(-90)"><tspan x="0" y="0">#459b5b</tspan></text>
  <text class="st2" transform="translate(381.78 622.1) rotate(-90)"><tspan x="0" y="0">#1d381c</tspan></text>
  <text class="st2" transform="translate(581.95 622.1) rotate(-90)"><tspan x="0" y="0">#e28538</tspan></text>
  <text class="st2" transform="translate(788.25 622.1) rotate(-90)"><tspan x="0" y="0">#eacc34</tspan></text>
  <text class="st2" transform="translate(986.38 622.1) rotate(-90)"><tspan x="0" y="0">#40403f</tspan></text>
</svg>